<svg width="778" height="114" viewBox="0 0 778 114" fill="none" xmlns="http://www.w3.org/2000/svg">
<path d="M135.7 90.5V18.9H160.9C164.3 18.9 167.467 19.4667 170.4 20.6C173.4 21.6667 176 23.2 178.2 25.2C180.4 27.2 182.133 29.6 183.4 32.4C184.667 35.1334 185.3 38.1667 185.3 41.5C185.3 44.9 184.667 48 183.4 50.8C182.133 53.5334 180.4 55.9 178.2 57.9C176 59.9 173.4 61.4667 170.4 62.6C167.467 63.6667 164.3 64.2 160.9 64.2H149.2V90.5H135.7ZM161.1 51.4C164.633 51.4 167.3 50.4 169.1 48.4C170.9 46.4 171.8 44.1 171.8 41.5C171.8 40.2334 171.567 39 171.1 37.8C170.7 36.6 170.033 35.5667 169.1 34.7C168.233 33.7667 167.133 33.0334 165.8 32.5C164.467 31.9667 162.9 31.7 161.1 31.7H149.2V51.4H161.1Z" fill="#2094F3"/>
<path d="M221.527 85.3H220.727C219.193 87.1667 217.327 88.7667 215.127 90.1C212.993 91.4334 210.227 92.1 206.827 92.1C204.293 92.1 201.893 91.6667 199.627 90.8C197.427 90 195.493 88.8667 193.827 87.4C192.16 85.9334 190.86 84.1667 189.927 82.1C188.993 80.0334 188.527 77.7667 188.527 75.3C188.527 72.7667 189.027 70.5 190.027 68.5C191.027 66.4334 192.427 64.6667 194.227 63.2C196.027 61.7334 198.127 60.6334 200.527 59.9C202.993 59.1 205.66 58.7 208.527 58.7C211.727 58.7 214.36 58.9667 216.427 59.5C218.493 59.9667 220.193 60.4667 221.527 61V59.5C221.527 56.9 220.493 54.7667 218.427 53.1C216.36 51.3667 213.793 50.5 210.727 50.5C206.193 50.5 202.36 52.4 199.227 56.2L189.727 49.7C194.927 43.1667 202.027 39.9 211.027 39.9C218.627 39.9 224.427 41.7 228.427 45.3C232.427 48.8334 234.427 54.1 234.427 61.1V90.5H221.527V85.3ZM221.527 70.6C219.993 69.8667 218.393 69.3 216.727 68.9C215.127 68.4334 213.36 68.2 211.427 68.2C208.293 68.2 205.86 68.9 204.127 70.3C202.46 71.6334 201.627 73.3 201.627 75.3C201.627 77.3 202.427 78.9 204.027 80.1C205.693 81.3 207.593 81.9 209.727 81.9C211.46 81.9 213.06 81.6 214.527 81C215.993 80.3334 217.227 79.5 218.227 78.5C219.293 77.4334 220.093 76.2334 220.627 74.9C221.227 73.5 221.527 72.0667 221.527 70.6Z" fill="#2094F3"/>
<path d="M290.854 78C288.721 82.1334 285.721 85.5334 281.854 88.2C278.054 90.8 273.287 92.1 267.554 92.1C263.754 92.1 260.254 91.4667 257.054 90.2C253.921 88.8667 251.187 87.0334 248.854 84.7C246.587 82.3667 244.787 79.6334 243.454 76.5C242.187 73.3 241.554 69.8 241.554 66C241.554 62.2 242.187 58.7 243.454 55.5C244.787 52.3 246.587 49.5667 248.854 47.3C251.187 44.9667 253.921 43.1667 257.054 41.9C260.254 40.5667 263.754 39.9 267.554 39.9C273.221 39.9 277.987 41.2 281.854 43.8C285.721 46.4 288.554 49.7667 290.354 53.9L278.354 58.9C277.221 56.6334 275.754 54.9334 273.954 53.8C272.221 52.6 270.021 52 267.354 52C265.621 52 263.987 52.3334 262.454 53C260.921 53.6667 259.554 54.6 258.354 55.8C257.221 57 256.321 58.4667 255.654 60.2C254.987 61.9334 254.654 63.8667 254.654 66C254.654 68.1334 254.987 70.0667 255.654 71.8C256.321 73.5334 257.221 75 258.354 76.2C259.554 77.4 260.921 78.3334 262.454 79C263.987 79.6667 265.621 80 267.354 80C270.087 80 272.387 79.4 274.254 78.2C276.187 76.9334 277.721 75.1334 278.854 72.8L290.854 78Z" fill="#2094F3"/>
<path d="M298.846 18.9H311.946V57.9H312.546L328.946 41.5H345.146V42.3L326.946 60L346.646 89.7V90.5H331.146L317.746 69L311.946 74.7V90.5H298.846V18.9Z" fill="#2094F3"/>
<path d="M381.097 85.3H380.297C378.764 87.1667 376.897 88.7667 374.697 90.1C372.564 91.4334 369.797 92.1 366.397 92.1C363.864 92.1 361.464 91.6667 359.197 90.8C356.997 90 355.064 88.8667 353.397 87.4C351.73 85.9334 350.43 84.1667 349.497 82.1C348.564 80.0334 348.097 77.7667 348.097 75.3C348.097 72.7667 348.597 70.5 349.597 68.5C350.597 66.4334 351.997 64.6667 353.797 63.2C355.597 61.7334 357.697 60.6334 360.097 59.9C362.564 59.1 365.23 58.7 368.097 58.7C371.297 58.7 373.93 58.9667 375.997 59.5C378.064 59.9667 379.764 60.4667 381.097 61V59.5C381.097 56.9 380.064 54.7667 377.997 53.1C375.93 51.3667 373.364 50.5 370.297 50.5C365.764 50.5 361.93 52.4 358.797 56.2L349.297 49.7C354.497 43.1667 361.597 39.9 370.597 39.9C378.197 39.9 383.997 41.7 387.997 45.3C391.997 48.8334 393.997 54.1 393.997 61.1V90.5H381.097V85.3ZM381.097 70.6C379.564 69.8667 377.964 69.3 376.297 68.9C374.697 68.4334 372.93 68.2 370.997 68.2C367.864 68.2 365.43 68.9 363.697 70.3C362.03 71.6334 361.197 73.3 361.197 75.3C361.197 77.3 361.997 78.9 363.597 80.1C365.264 81.3 367.164 81.9 369.297 81.9C371.03 81.9 372.63 81.6 374.097 81C375.564 80.3334 376.797 79.5 377.797 78.5C378.864 77.4334 379.664 76.2334 380.197 74.9C380.797 73.5 381.097 72.0667 381.097 70.6Z" fill="#2094F3"/>
<path d="M426.524 113.7C423.058 113.7 419.958 113.233 417.224 112.3C414.558 111.433 412.224 110.267 410.224 108.8C408.224 107.4 406.558 105.833 405.224 104.1C403.891 102.367 402.924 100.633 402.324 98.9L414.824 93.9C415.758 96.5 417.291 98.5 419.424 99.9C421.558 101.367 423.924 102.1 426.524 102.1C430.658 102.1 433.924 100.8 436.324 98.2C438.724 95.6667 439.924 92.1 439.924 87.5V84.1H439.124C437.591 86.2334 435.558 87.9334 433.024 89.2C430.558 90.4 427.624 91 424.224 91C421.291 91 418.424 90.4 415.624 89.2C412.891 88 410.458 86.3 408.324 84.1C406.191 81.8334 404.458 79.1334 403.124 76C401.791 72.8667 401.124 69.3667 401.124 65.5C401.124 61.6334 401.791 58.1334 403.124 55C404.458 51.8 406.191 49.1 408.324 46.9C410.458 44.6334 412.891 42.9 415.624 41.7C418.424 40.5 421.291 39.9 424.224 39.9C427.624 39.9 430.558 40.5334 433.024 41.8C435.558 43 437.591 44.6667 439.124 46.8H439.924V41.5H452.424V87C452.424 91.1334 451.791 94.8334 450.524 98.1C449.258 101.433 447.491 104.233 445.224 106.5C442.958 108.833 440.224 110.6 437.024 111.8C433.891 113.067 430.391 113.7 426.524 113.7ZM427.024 79.2C428.624 79.2 430.191 78.9 431.724 78.3C433.324 77.7 434.724 76.8334 435.924 75.7C437.124 74.5 438.091 73.0667 438.824 71.4C439.558 69.6667 439.924 67.7 439.924 65.5C439.924 63.3 439.558 61.3334 438.824 59.6C438.091 57.8667 437.124 56.4334 435.924 55.3C434.724 54.1 433.324 53.2 431.724 52.6C430.191 52 428.624 51.7 427.024 51.7C425.424 51.7 423.858 52 422.324 52.6C420.791 53.2 419.424 54.1 418.224 55.3C417.024 56.5 416.058 57.9667 415.324 59.7C414.591 61.3667 414.224 63.3 414.224 65.5C414.224 67.7 414.591 69.6667 415.324 71.4C416.058 73.0667 417.024 74.5 418.224 75.7C419.424 76.8334 420.791 77.7 422.324 78.3C423.858 78.9 425.424 79.2 427.024 79.2Z" fill="#2094F3"/>
<path d="M509.504 78.7C507.237 82.7 504.171 85.9334 500.304 88.4C496.504 90.8667 491.837 92.1 486.304 92.1C482.571 92.1 479.104 91.4667 475.904 90.2C472.771 88.8667 470.037 87.0334 467.704 84.7C465.371 82.3667 463.537 79.6334 462.204 76.5C460.937 73.3 460.304 69.8 460.304 66C460.304 62.4667 460.937 59.1334 462.204 56C463.471 52.8 465.237 50.0334 467.504 47.7C469.771 45.3 472.437 43.4 475.504 42C478.637 40.6 482.071 39.9 485.804 39.9C489.737 39.9 493.237 40.5667 496.304 41.9C499.371 43.1667 501.937 44.9667 504.004 47.3C506.071 49.5667 507.637 52.2667 508.704 55.4C509.771 58.5334 510.304 61.9334 510.304 65.6C510.304 66.0667 510.304 66.4667 510.304 66.8C510.237 67.2 510.204 67.5667 510.204 67.9C510.137 68.2334 510.104 68.6 510.104 69H473.204C473.471 71 474.004 72.7334 474.804 74.2C475.671 75.6 476.704 76.8 477.904 77.8C479.171 78.7334 480.537 79.4334 482.004 79.9C483.471 80.3 484.971 80.5 486.504 80.5C489.504 80.5 491.971 79.8334 493.904 78.5C495.904 77.1 497.471 75.3667 498.604 73.3L509.504 78.7ZM497.604 59.7C497.537 58.8334 497.237 57.8667 496.704 56.8C496.237 55.7334 495.504 54.7334 494.504 53.8C493.571 52.8667 492.371 52.1 490.904 51.5C489.504 50.9 487.804 50.6 485.804 50.6C483.004 50.6 480.537 51.4 478.404 53C476.271 54.6 474.771 56.8334 473.904 59.7H497.604Z" fill="#2094F3"/>
<path d="M602.89 79C599.356 83.2667 595.19 86.5334 590.39 88.8C585.59 91 580.223 92.1 574.29 92.1C568.957 92.1 563.99 91.1334 559.39 89.2C554.856 87.2667 550.923 84.6334 547.59 81.3C544.257 77.9667 541.623 74.0334 539.69 69.5C537.757 64.9 536.79 59.9667 536.79 54.7C536.79 49.4334 537.757 44.5334 539.69 40C541.623 35.4 544.257 31.4334 547.59 28.1C550.923 24.7667 554.856 22.1334 559.39 20.2C563.99 18.2667 568.957 17.3 574.29 17.3C580.023 17.3 585.056 18.3 589.39 20.3C593.79 22.3 597.69 25.2 601.09 29L591.59 38.2C589.457 35.7334 586.99 33.7667 584.19 32.3C581.457 30.8334 578.19 30.1 574.39 30.1C571.056 30.1 567.923 30.7 564.99 31.9C562.057 33.0334 559.49 34.6667 557.29 36.8C555.157 38.9334 553.457 41.5334 552.19 44.6C550.923 47.6 550.29 50.9667 550.29 54.7C550.29 58.4334 550.923 61.8334 552.19 64.9C553.457 67.9 555.157 70.4667 557.29 72.6C559.49 74.7334 562.057 76.4 564.99 77.6C567.923 78.7334 571.056 79.3 574.39 79.3C578.39 79.3 581.923 78.5 584.99 76.9C588.123 75.2334 590.89 72.9 593.29 69.9L602.89 79Z" fill="#2094F3"/>
<path d="M611.151 41.5H623.451V48.3H624.251C624.851 47.1 625.651 46 626.651 45C627.651 44 628.751 43.1334 629.951 42.4C631.217 41.6667 632.551 41.1 633.951 40.7C635.417 40.3 636.851 40.1 638.251 40.1C639.984 40.1 641.451 40.2667 642.651 40.6C643.917 40.9334 644.984 41.3667 645.851 41.9L642.351 53.8C641.551 53.4 640.651 53.1 639.651 52.9C638.717 52.6334 637.551 52.5 636.151 52.5C634.351 52.5 632.717 52.8667 631.251 53.6C629.784 54.2667 628.517 55.2334 627.451 56.5C626.451 57.7667 625.651 59.2667 625.051 61C624.517 62.6667 624.251 64.5 624.251 66.5V90.5H611.151V41.5Z" fill="#2094F3"/>
<path d="M695.246 78.7C692.979 82.7 689.913 85.9334 686.046 88.4C682.246 90.8667 677.579 92.1 672.046 92.1C668.313 92.1 664.846 91.4667 661.646 90.2C658.513 88.8667 655.779 87.0334 653.446 84.7C651.113 82.3667 649.279 79.6334 647.946 76.5C646.679 73.3 646.046 69.8 646.046 66C646.046 62.4667 646.679 59.1334 647.946 56C649.213 52.8 650.979 50.0334 653.246 47.7C655.513 45.3 658.179 43.4 661.246 42C664.379 40.6 667.813 39.9 671.546 39.9C675.479 39.9 678.979 40.5667 682.046 41.9C685.113 43.1667 687.679 44.9667 689.746 47.3C691.813 49.5667 693.379 52.2667 694.446 55.4C695.513 58.5334 696.046 61.9334 696.046 65.6C696.046 66.0667 696.046 66.4667 696.046 66.8C695.979 67.2 695.946 67.5667 695.946 67.9C695.879 68.2334 695.846 68.6 695.846 69H658.946C659.213 71 659.746 72.7334 660.546 74.2C661.413 75.6 662.446 76.8 663.646 77.8C664.913 78.7334 666.279 79.4334 667.746 79.9C669.213 80.3 670.713 80.5 672.246 80.5C675.246 80.5 677.713 79.8334 679.646 78.5C681.646 77.1 683.213 75.3667 684.346 73.3L695.246 78.7ZM683.346 59.7C683.279 58.8334 682.979 57.8667 682.446 56.8C681.979 55.7334 681.246 54.7334 680.246 53.8C679.313 52.8667 678.113 52.1 676.646 51.5C675.246 50.9 673.546 50.6 671.546 50.6C668.746 50.6 666.279 51.4 664.146 53C662.013 54.6 660.513 56.8334 659.646 59.7H683.346Z" fill="#2094F3"/>
<path d="M698.236 41.5H712.936L721.036 72.2H721.736L731.436 41.5H744.936L754.736 72.2H755.436L763.436 41.5H777.936L762.236 90.5H748.136L738.336 59.6H737.636L727.836 90.5H713.936L698.236 41.5Z" fill="#2094F3"/>
<path d="M54.5 18.5L22.5 38.5L54.5 58.5L86.5 38.5L54.5 18.5Z" fill="#2094F3"/>
<path fill-rule="evenodd" clip-rule="evenodd" d="M53.175 16.38C53.9857 15.8734 55.0143 15.8734 55.825 16.38L87.825 36.38C88.556 36.8369 89 37.6381 89 38.5C89 39.362 88.556 40.1632 87.825 40.62L55.825 60.62C55.0143 61.1267 53.9857 61.1267 53.175 60.62L21.175 40.62C20.444 40.1632 20 39.362 20 38.5C20 37.6381 20.444 36.8369 21.175 36.38L53.175 16.38ZM27.217 38.5L54.5 55.5519L81.783 38.5L54.5 21.4482L27.217 38.5Z" fill="#2094F3"/>
<path fill-rule="evenodd" clip-rule="evenodd" d="M69.0131 0.687823C69.8299 -0.0883317 71.0649 -0.222249 72.029 0.360797L101.794 18.3608C102.398 18.7265 102.82 19.3311 102.954 20.025C103.089 20.7189 102.923 21.4372 102.498 22.0021L88.969 40.0021C88.1859 41.044 86.7337 41.3094 85.6327 40.6119L53.1621 20.0405C52.5113 19.6282 52.087 18.9389 52.0119 18.1722C51.9368 17.4055 52.2194 16.6471 52.7778 16.1164L69.0131 0.687823ZM71.0743 5.62666L58.546 17.5324L86.3589 35.153L96.8402 21.2084L71.0743 5.62666Z" fill="#2094F3"/>
<path fill-rule="evenodd" clip-rule="evenodd" d="M36.971 0.360797C37.9352 -0.222249 39.1702 -0.0883317 39.9869 0.687823L56.2222 16.1164C56.7806 16.6471 57.0632 17.4055 56.9881 18.1722C56.913 18.9389 56.4887 19.6282 55.838 20.0405L23.3674 40.6119C22.2663 41.3094 20.8141 41.044 20.031 40.0021L6.50158 22.0021C6.07694 21.4372 5.91127 20.7189 6.04556 20.025C6.17985 19.3311 6.60156 18.7265 7.20632 18.3608L36.971 0.360797ZM12.1599 21.2084L22.6411 35.153L50.454 17.5324L37.9257 5.62666L12.1599 21.2084Z" fill="#2094F3"/>
<path fill-rule="evenodd" clip-rule="evenodd" d="M85.4065 36.3671C86.1565 35.9085 87.0923 35.8776 87.8709 36.2856L106.66 46.1318C107.437 46.5385 107.943 47.3219 107.996 48.1965C108.048 49.0712 107.639 49.9095 106.917 50.406L74.7062 72.5599C73.8699 73.1351 72.7687 73.1475 71.9196 72.5913L53.1301 60.2836C52.4133 59.8141 51.9869 59.0102 52.0003 58.1534C52.0137 57.2966 52.4649 56.5063 53.196 56.0594L85.4065 36.3671ZM86.8054 41.3722L59.1737 58.2652L73.2555 67.4892L100.667 48.636L86.8054 41.3722Z" fill="#2094F3"/>
<path fill-rule="evenodd" clip-rule="evenodd" d="M20.5151 36.2765C21.2839 35.8814 22.2022 35.9114 22.9435 36.3559L55.7856 56.0482C56.5272 56.4929 56.9864 57.2892 56.9997 58.1537C57.0131 59.0183 56.5788 59.8283 55.8513 60.2957L36.6934 72.6034C35.8531 73.1432 34.7721 73.1311 33.9441 72.5726L1.10196 50.4187C0.369279 49.9245 -0.0480079 49.0801 0.00441532 48.1979C0.0568383 47.3157 0.57118 46.5267 1.35724 46.1227L20.5151 36.2765ZM7.40236 48.6375L35.3757 67.507L49.7607 58.2656L21.5644 41.3589L7.40236 48.6375Z" fill="#2094F3"/>
<path fill-rule="evenodd" clip-rule="evenodd" d="M22.5 61C23.8807 61 25 62.1193 25 63.5V84.5178L54.5 100.651L84 84.5178V63.5C84 62.1193 85.1193 61 86.5 61C87.8807 61 89 62.1193 89 63.5V86C89 86.9139 88.5013 87.755 87.6995 88.1935L55.6995 105.693C54.9521 106.102 54.0479 106.102 53.3005 105.693L21.3005 88.1935C20.4987 87.755 20 86.9139 20 86V63.5C20 62.1193 21.1193 61 22.5 61Z" fill="#2094F3"/>
</svg>
